# xmcd CD database file
#
# Track frame offsets:
#	150
#	6432
#	21390
#	43900
#	57032
#	77622
#	96355
#	114395
#	138120
#	157550
#
# Disc length: 2563 seconds
#
# Revision: 6
# Processed by: cddbd v1.5.2PL0 Copyright (c) Steve Scherf et al.
# Submitted via: CDex 1.51
#
DISCID=720a010a
DTITLE=The Rolling Stones - Love You Live (Disc-1)
DYEAR=1977
DGENRE=Rock
TTITLE0=Intro: Excerpt From "Fanfare For The Common Man"
TTITLE1=Honky Tonk Women
TTITLE2=If You Can't Rock Me - Get Off My Cloud
TTITLE3=Happy
TTITLE4=Hot Stuff
TTITLE5=Star Star
TTITLE6=Tumbling Dice
TTITLE7=Fingerprint File
TTITLE8=You Gotta Move
TTITLE9=You Can't Always Get What You Want
EXTD=YEAR: 1977
EXTT0=
EXTT1=
EXTT2=
EXTT3=
EXTT4=
EXTT5=
EXTT6=
EXTT7=
EXTT8=
EXTT9=
PLAYORDER=
